<?xml version="1.0" encoding="utf-8"?>
<!-- Generator: Adobe Illustrator 23.0.5, SVG Export Plug-In . SVG Version: 6.00 Build 0)  -->
<svg version="1.1" id="图层_1" xmlns="http://www.w3.org/2000/svg" xmlns:xlink="http://www.w3.org/1999/xlink" x="0px" y="0px"
	 viewBox="0 0 528.5 536.55" style="enable-background:new 0 0 528.5 536.55;" xml:space="preserve">
<style type="text/css">
	.st0{
		fill-rule:evenodd;
		clip-rule:evenodd;
		fill: white;
	}
</style>
<polygon class="st0" points="179,283.55 144,318.55 204,378.55 388.5,378.55 435.5,331.55 227,331.55 "/>
<path class="st0" d="M450,77.55H118v-72l-118,118h63v413l55-55v-248h52l45,45l35-35l-11-11h56L450,77.55z M118,188.55v-65h221
	l-65,65H118z"/>
<rect x="239.75" y="284.56" transform="matrix(0.7071 -0.7071 0.7071 0.7071 -129.7468 272.8604)" class="st0" width="49.5" height="16.97"/>
<rect x="220.75" y="262.74" transform="matrix(0.7071 -0.7071 0.7071 0.7071 -121.8767 253.8598)" class="st0" width="49.5" height="22.63"/>
<polygon class="st0" points="457.5,378.55 481.5,378.55 528.5,331.55 504.5,331.55 "/>
<polygon class="st0" points="446,378.55 400.5,378.55 447.5,331.55 493,331.55 "/>
</svg>
